Coordinates
version=1
nRows=14
nColumns=40
inDegrees=yes

Units are S.I. units (second, meters, Newtons, ...)
Angles are in degrees.

endheader
time	pelvis_tilt	pelvis_list	pelvis_rotation	pelvis_tx	pelvis_ty	pelvis_tz	hip_flexion_r	hip_adduction_r	hip_rotation_r	knee_angle_r	knee_angle_r_beta	ankle_angle_r	subtalar_angle_r	mtp_angle_r	hip_flexion_l	hip_adduction_l	hip_rotation_l	knee_angle_l	knee_angle_l_beta	ankle_angle_l	subtalar_angle_l	mtp_angle_l	lumbar_extension	lumbar_bending	lumbar_rotation	arm_flex_r	arm_add_r	arm_rot_r	elbow_flex_r	pro_sup_r	wrist_flex_r	wrist_dev_r	arm_flex_l	arm_add_l	arm_rot_l	elbow_flex_l	pro_sup_l	wrist_flex_l	wrist_dev_l
     59.32528571	     -7.31347636	     -5.82499795	     -0.39170716	      0.85922233	      0.93147186	      0.38814777	     33.51766849	     -4.06484369	     -8.75616497	     50.81385337	     50.81385337	      5.81552528	    -14.28507773	      3.56429046	     14.69551175	     -5.56799997	     -7.58574063	     19.94375055	     19.94375055	     15.03088083	     -7.00427534	      0.61090396	    -10.48538045	      3.87722152	      1.14792541	      1.01103452	    -17.39348648	     11.12576678	     32.07329055	     46.24823821	      0.00000000	      0.00000000	     10.53594636	    -14.57791283	    -16.31285624	     50.37129939	     46.88976245	      0.00000000	      0.00000000
     59.33807143	     -7.48723468	     -5.68631087	     -0.66683979	      0.85768717	      0.93105403	      0.38896666	     34.08088753	     -3.92892200	     -8.53923334	     48.31788119	     48.31788119	      5.80150257	    -13.48062619	      3.69161528	     14.42266493	     -5.49808186	     -7.83309407	     19.83359845	     19.83359845	     15.22872842	     -7.03948708	      0.46396669	    -10.35049434	      3.69784550	      0.57765478	     -0.20481973	    -17.60604090	     11.01910069	     31.69964239	     46.25814924	      0.00000000	      0.00000000	     10.94011051	    -15.13703408	    -16.41210312	     50.67103247	     46.90599282	      0.00000000	      0.00000000
     59.35085714	     -7.42570252	     -5.78273319	     -0.93335256	      0.85663642	      0.93113313	      0.38991875	     33.92675797	     -3.61112704	     -8.73716900	     45.02790863	     45.02790863	      4.42779890	    -12.75751127	     -0.18384481	     13.50327137	     -5.63068415	     -8.07487578	     18.97963821	     18.97963821	     14.82519237	     -7.07924627	     -1.02293404	    -10.56475929	      3.82009033	      1.34142407	     -2.54325046	    -17.26686699	      5.87775944	     31.59809470	     46.49528202	      0.00000000	      0.00000000	     11.87067154	    -15.16717957	    -15.33210568	     51.78826014	     46.86585255	      0.00000000	      0.00000000
     59.36364286	     -7.51308558	     -5.76854238	     -1.19628308	      0.85546978	      0.93083131	      0.39097323	     34.03992550	     -3.33966283	     -8.79043375	     41.99371640	     41.99371640	      4.41738246	    -11.49532329	      0.12641726	     12.97966396	     -5.68482929	     -8.31369633	     18.61989524	     18.61989524	     15.07088993	     -6.95663932	     -1.10927383	    -10.49512344	      3.81139481	      1.10418051	     -3.80207040	    -17.40948862	      5.79212207	     31.09925542	     46.50545036	      0.00000000	      0.00000000	     12.34056673	    -15.43286025	    -15.45730639	     52.29590596	     46.88972025	      0.00000000	      0.00000000
     59.37642857	     -7.48237729	     -5.63568322	     -1.47870489	      0.85450515	      0.93055800	      0.39208669	     33.92735970	     -3.22905335	     -8.98179237	     38.88818951	     38.88818951	      4.42722385	     -9.79271449	      0.14854390	     12.21322379	     -5.61570937	     -8.75299871	     18.08068262	     18.08068262	     15.25422604	     -6.64383025	     -1.48324030	    -10.59516953	      3.64424376	      1.25493388	     -5.26074690	    -17.45740606	      5.21403870	     30.66609245	     46.53154718	      0.00000000	      0.00000000	     12.88350078	    -15.45604370	    -15.62431676	     53.43723683	     46.92943612	      0.00000000	      0.00000000
     59.38921429	     -7.53070402	     -5.57852948	     -1.72875086	      0.85364181	      0.93013267	      0.39336842	     33.74289983	     -2.95731035	     -9.20271737	     35.60846989	     35.60846989	      4.31051366	     -8.36967723	      0.52295295	     11.57620094	     -5.61225925	     -8.99395093	     17.62293373	     17.62293373	     15.47435679	     -6.54724256	     -1.66874923	    -10.54103169	      3.58964193	      1.05372911	     -6.40224732	    -17.48020294	      5.00810601	     30.29977241	     46.54503984	      0.00000000	      0.00000000	     13.25856596	    -15.64217826	    -15.74059910	     54.02145742	     46.95258575	      0.00000000	      0.00000000
     59.40200000	     -7.56736628	     -5.44660065	     -1.98562129	      0.85309253	      0.92960061	      0.39472112	     33.43680506	     -2.74831387	     -9.48492291	     32.33238994	     32.33238994	      4.22293180	     -6.76892287	      0.93375841	     10.84121543	     -5.52028826	     -9.30628242	     17.05198555	     17.05198555	     15.67815222	     -6.37413088	     -1.89529074	    -10.44764257	      3.47025637	      0.99941646	     -7.53099600	    -17.39465829	      4.80542465	     29.95619800	     46.55844468	      0.00000000	      0.00000000	     13.64710907	    -15.74532589	    -15.87040394	     54.73804080	     46.97822884	      0.00000000	      0.00000000
     59.41478571	     -7.38147967	     -5.16800530	     -2.23644193	      0.85293847	      0.92920203	      0.39600162	     32.84572337	     -2.76765829	    -10.06750706	     29.25234207	     29.25234207	      4.24223061	     -4.65049511	      1.36102463	      9.63725664	     -5.20043839	     -9.63864037	     16.02898800	     16.02898800	     15.14058777	     -6.44065585	     -3.75881406	    -10.65133277	      3.17796161	      1.14264345	     -8.86951569	    -16.91633914	      1.70482923	     29.99869616	     46.69642770	      0.00000000	      0.00000000	     13.69555993	    -15.53564879	    -16.23402835	     56.85079351	     47.05728332	      0.00000000	      0.00000000
     59.42757143	     -7.28003356	     -4.91029124	     -2.47331717	      0.85304197	      0.92861794	      0.39745387	     32.26032898	     -2.69924927	    -10.65518636	     26.30040459	     26.30040459	      4.21176426	     -2.82172400	      2.09905872	      8.60550617	     -4.93255779	     -9.96381724	     15.24448841	     15.24448841	     15.30700029	     -6.19735782	     -4.05129356	    -10.62564664	      2.93131872	      1.28549346	     -9.95321543	    -16.75894513	      1.18873958	     29.53986210	     46.72377588	      0.00000000	      0.00000000	     14.10438227	    -15.49620678	    -16.32682672	     57.55736980	     47.08354456	      0.00000000	      0.00000000
     59.44035714	     -7.07324375	     -4.65824127	     -2.70548636	      0.85350437	      0.92803067	      0.39903626	     31.51509309	     -2.57851804	    -11.23774540	     23.61471149	     23.61471149	      4.21036470	     -1.18489535	      2.96525910	      7.42982956	     -4.66265195	    -10.25916349	     14.45871478	     14.45871478	     15.46690993	     -5.97233323	     -4.39613615	    -10.68849207	      2.69153112	      1.35848490	    -10.90648452	    -16.55590292	      0.74874338	     29.25774112	     46.74507561	      0.00000000	      0.00000000	     14.36670370	    -15.41350993	    -16.44618485	     58.41844890	     47.11113020	      0.00000000	      0.00000000
     59.45314286	     -6.99895716	     -4.32566388	     -2.91881365	      0.85405135	      0.92708244	      0.40052539	     31.05405287	     -2.61059121	    -11.96444744	     21.56295023	     21.56295023	      4.60329779	      0.52748660	      5.14979781	      6.33935615	     -4.24208728	    -10.38284065	     13.47618863	     13.47618863	     15.09324365	     -6.26991468	     -5.73901131	    -10.62548849	      2.44346054	      1.28038383	    -11.76122403	    -16.05689387	     -1.40956272	     29.27639299	     46.82957834	      0.00000000	      0.00000000	     14.11952963	    -15.28655181	    -16.78033275	     60.11342624	     47.17576428	      0.00000000	      0.00000000
     59.46592857	     -6.80659958	     -4.03484686	     -3.11949613	      0.85505229	      0.92621155	      0.40221421	     30.33090295	     -2.52161497	    -12.52991517	     19.64379386	     19.64379386	      4.48109390	      1.62621881	      5.75508353	      5.15780316	     -3.91012694	    -10.64603265	     12.69084633	     12.69084633	     15.36371707	     -5.98670381	     -5.85514642	    -10.56431712	      2.21839284	      1.43845364	    -12.53183175	    -15.79344993	     -1.61982873	     28.95065770	     46.83919481	      0.00000000	      0.00000000	     14.35763541	    -15.06508281	    -16.82796668	     60.69642622	     47.19169317	      0.00000000	      0.00000000
     59.47871429	     -6.65738211	     -3.73746909	     -3.29666877	      0.85620730	      0.92515509	      0.40395636	     29.72973086	     -2.48619619	    -13.11214062	     18.25386192	     18.25386192	      4.32968480	      2.60451293	      6.24575657	      4.06895112	     -3.57542461	    -10.85081189	     11.99064002	     11.99064002	     15.60217531	     -5.79454963	     -6.00526122	    -10.46426440	      2.01904663	      1.54737195	    -13.19704409	    -15.49892097	     -1.86664834	     28.76170515	     46.84815552	      0.00000000	      0.00000000	     14.42670227	    -14.81803439	    -16.89346259	     61.44385674	     47.21064247	      0.00000000	      0.00000000
     59.49150000	     -6.50564103	     -3.43571519	     -3.44574266	      0.85757964	      0.92394186	      0.40573899	     29.21108612	     -2.53383948	    -13.74045148	     17.43044505	     17.43044505	      4.27434629	      3.55390234	      6.50105017	      2.97916651	     -3.21220666	    -10.85845622	     11.28635938	     11.28635938	     15.68313326	     -5.93804393	     -6.38604118	    -10.34226866	      1.80904948	      1.50033010	    -13.72581718	    -15.07523055	     -2.96637297	     28.83262062	     46.87868938	      0.00000000	      0.00000000	     14.03121326	    -14.62225618	    -17.15670472	     62.99448123	     47.26117994	      0.00000000	      0.00000000
